<svg viewBox="0 0 48 48" xmlns="http://www.w3.org/2000/svg"><path d="m47 42c0 3.61-3.55 6.59-9.62 4.08-2.92-1.24-4-2.76-8.39-7.18a2 2 0 0 1 0-2.82l7.09-7.08a2 2 0 0 1 2.82 0c4.44 4.37 8.1 7 8.1 13z" fill="#7c7d7d"/><path d="m47 42a4.93 4.93 0 0 1 -.61 2.39 4.93 4.93 0 0 1 -2.39.61c-6 0-8.61-3.64-13-8.1a2 2 0 0 1 -.15-2.65c.14-.17-.39.37 5.24-5.26a2 2 0 0 1 2.82 0c4.43 4.38 8.09 7.01 8.09 13.01z" fill="#919191"/><path d="m38.81 10.6-19.1 19.11a1 1 0 0 1 -1.42-1.42l19.11-19.1a1 1 0 0 1 1.41 1.41z" fill="#df8761"/><g fill="#dad7e5"><path d="m19.4 40c-7.4 7.39-6.81 7-7.4 7a1 1 0 0 1 -.71-1.71l6.71-6.69a1 1 0 0 1 1.4 1.4z"/><path d="m9.69 30.06-7 6.66a1 1 0 0 1 -1.38-1.44c6-5.72 4.33-4.14 7-6.67a1 1 0 0 1 1.38 1.45z"/><path d="m13.71 35.71c-6.6 6.6-6.13 6.29-6.71 6.29a1 1 0 0 1 -.71-1.71l6-6a1 1 0 0 1 1.42 1.42z"/></g><path d="m9.69 30.06-2 1.87-1.38-1.42 2-1.9a1 1 0 0 1 1.38 1.45z" fill="#c6c3d8"/><path d="m13.71 35.71-1.11 1.11-1.41-1.43 1.1-1.1a1 1 0 0 1 1.42 1.42z" fill="#c6c3d8"/><path d="m19.4 40-1.8 1.8-1.42-1.4 1.82-1.8a1 1 0 0 1 1.4 1.4z" fill="#c6c3d8"/><path d="m20.47 39-1.42 1.42-11.31-11.3 1.41-1.41a2 2 0 0 1 2.83 0l2.12 2.12.71-.71a3 3 0 0 1 4.24 4.24l-.71.71 2.13 2.13a2 2 0 0 1 0 2.8z" fill="#919191"/><path d="m20.38 36.11a1.89 1.89 0 0 1 -2.66 0c-9.25-9.26-8.31-8.4-8.57-8.4l-1.41 1.41 11.31 11.32 1.42-1.44a2 2 0 0 0 -.09-2.89z" fill="#7c7d7d"/><path d="m37.53 3.53 6.94 6.94a7 7 0 0 0 1.17-1.06 2 2 0 0 0 0-2.8l-4.25-4.22a2 2 0 0 0 -2.8 0 6.17 6.17 0 0 0 -1.06 1.14z" fill="#df8761"/><path d="m22 24h1.99v1.99h-1.99z" fill="#cc734c" transform="matrix(.70710678 -.70710678 .70710678 .70710678 -10.94 23.59)"/><path d="m35.78 39.19c-5.44-5.44-5-4.88-4.79-5.11l1.25-1.25 4.95 5a1 1 0 0 1 -1.41 1.36z" fill="#7c7d7d"/><path d="m37.49 38.49c-.62 0 1.24 1.65-28.3-27.89a1 1 0 0 1 1.41-1.41l27.59 27.59a1 1 0 0 1 -.7 1.71z" fill="#df8761"/><path d="m37.18 3.43a1 1 0 0 1 .73-.43c.65-.06.43-.08 6.8 6.29a1 1 0 0 1 -.14 1.53c-5.49 3.85-11.24-1.9-7.39-7.39zm1 2.21a3.09 3.09 0 0 0 4.14 4.14z" fill="#374f68"/><path d="m10.47 3.53-6.94 6.94a7 7 0 0 1 -1.17-1.06 2 2 0 0 1 0-2.8l4.25-4.22a2 2 0 0 1 2.8 0 6.17 6.17 0 0 1 1.06 1.14z" fill="#df8761"/><path d="m3.43 10.82a1 1 0 0 1 -.43-.73c0-.67-.06-.44 6.29-6.8a1 1 0 0 1 1.53.14c3.79 5.41-1.82 11.3-7.39 7.39zm2.21-1a3.09 3.09 0 0 0 4.14-4.18z" fill="#374f68"/></svg>