<svg enable-background="new 0 0 595.28 595.28" height="595.28" viewBox="0 0 595.28 595.28" width="595.28" xmlns="http://www.w3.org/2000/svg"><path d="m212.091 303.7c1.503-2.119 3.042-4.322 3.545-6.871 1.191-6.035-3.611-11.414-7.838-15.882-31.941-33.766-51.527-79.982-49.371-126.412.87-18.752 5.158-37.368 4.077-56.109-.445-7.709-1.797-15.364-1.818-23.086-.036-13.629 4.06-26.89 8.117-39.902 11.45 1.097 20.744 9.831 27.223 19.336s11.157 20.261 18.668 28.973c4.804 5.573 10.633 10.148 16.222 14.935 26.331 22.552 47.97 50.556 63.15 81.724-1.552-9.578 4.88-18.432 10.946-26.004 20.98-26.188 41.961-52.376 62.941-78.564 17.415-21.738 35.55-44.081 60.207-57.038 19.155 42.298 24.76 90.231 18.434 136.231s-24.311 90.058-49.826 128.852c-6.048 9.196-12.7 18.296-21.738 24.576 7.799 8.628 14.78 17.996 20.817 27.937.923 1.52 1.853 3.16 1.807 4.938-.042 1.632-.904 3.117-1.772 4.5-6.961 11.073-16.047 20.804-26.617 28.507-1.26.918-2.655 1.846-4.215 1.829-1.603-.017-3.004-1.025-4.285-1.989-23.333-17.574-46.666-35.148-69.998-52.723-8.09 13.98-16.673 27.675-25.728 41.05-2.818 4.163-6.279 8.673-11.269 9.284-2.331.285-4.665-.351-6.928-.982-16.729-4.664-34.171-9.6-48.476-19.843-9.104-6.519-13.262-9.034-6.585-18.621 6.688-9.604 13.541-19.098 20.31-28.646z" fill="#f6c11e"/><path d="m413.583 331.161c20.265 18.058 40.836 36.476 54.972 59.647 11.124 18.233 17.861 38.774 27.646 57.759 11.514 22.342 27.253 42.544 36.291 65.997 2.933 7.612 5.076 16.378 1.519 23.719-2.706 5.585-8.203 9.223-13.62 12.253-16 8.949-33.593 15.041-51.702 17.902-2.116.334-4.348.614-6.348-.155-2.032-.782-3.51-2.523-4.94-4.164-10.854-12.458-23.923-22.746-36.263-33.734-26.735-23.806-50.269-51.196-69.841-81.167-7.558-11.574-22.071-28.607-18.573-43.483 3.226-13.723 19.986-25.962 29.766-34.969 15.869-14.615 32.979-27.885 51.093-39.605z" fill="#4e3b31"/><path d="m214.97 359.074c16.757 6.796 36.543 9.479 48.241 23.269-11.095 5.156-17.312 16.818-23.899 27.127-7.462 11.679-16.269 22.429-25.053 33.149-26.513 32.355-53.025 64.711-79.538 97.066-6.862 8.374-14.458 17.228-24.964 19.843-4.295 1.069-8.785.997-13.205.771-15.232-.777-32.919-5.18-38.746-19.275-3.699-8.946-1.326-19.159 1.644-28.372 9.717-30.14 25.471-58.319 46.057-82.383 8.914-10.42 18.773-20.144 26.122-31.721 11.059-17.422 17.585-38.477 33.607-52.483 15.782-13.795 34.225 6.719 49.734 13.009z" fill="#4e3b31"/><g fill="#231f20"><path d="m363.085 376.574c-.809 0-1.603-.392-2.084-1.116-16.417-24.689-53.92-46.925-83.804-58.01-5.157-1.912-9.528-.937-14.156.099-6.381 1.427-13.611 3.045-22.008-4.285-3.111-2.717-6.387-5.456-9.854-8.356-14.149-11.837-30.186-25.252-38.962-40.941-27.709-49.534-34.486-107.893-35.293-148.128-.054-2.685-.134-5.449-.216-8.273-.76-26.063-1.705-58.498 17.763-78.764.622-.646 1.543-.914 2.415-.691.87.22 1.557.89 1.797 1.755 2.06 7.419 12.377 19.325 19.204 27.204 2.036 2.35 3.795 4.379 5.009 5.91 19.259 24.312 36.524 46.193 52.806 67.811 38.556 51.191 76.278 108.74 112.759 164.394 11.624 17.734 22.604 34.484 33.604 51.027.765 1.149.452 2.701-.698 3.466-1.147.765-2.701.452-3.466-.698-11.008-16.556-21.992-33.313-33.621-51.054-36.437-55.587-74.114-113.065-112.571-164.127-16.247-21.571-33.493-43.429-52.731-67.713-1.145-1.445-2.87-3.437-4.867-5.741-6.41-7.397-14.833-17.117-18.671-25.089-15.286 18.845-14.463 47.092-13.732 72.165.083 2.84.164 5.62.218 8.319.796 39.664 7.453 97.154 34.657 145.786 8.327 14.887 23.989 27.988 37.807 39.548 3.488 2.918 6.783 5.674 9.935 8.426 6.485 5.661 11.399 4.563 17.628 3.171 4.896-1.094 10.442-2.333 16.986.094 30.643 11.365 69.189 34.304 86.229 59.93.765 1.149.452 2.701-.698 3.466-.428.28-.91.415-1.385.415z"/><path d="m104.776 564.397c-4.46 0-9.341-.988-14.794-3.268-16.021-6.701-35.526-17.977-37.465-33.638-1.227-9.91 6.573-20.619 13.454-30.067 2.396-3.288 4.657-6.395 6.145-8.989 13.829-24.132 31.314-46.409 48.224-67.952 8.172-10.411 16.622-21.177 24.497-31.954 6.158-8.429 24.9-34.076 24.877-48.551-.005-2.957 1.571-4.33 2.512-4.885 4.183-2.47 11.883.84 22.956 6.975 1.07.594 1.995 1.105 2.446 1.32 3.032 1.439 17.143 9.855 30.422 18.531 26.801 17.508 27.015 20.654 27.129 22.345.177 2.616-2.685 5.525-7.417 10.004-1.113 1.055-2.376 2.25-2.714 2.699-5.253 6.987-9.611 15.348-13.827 23.433-2.09 4.009-4.25 8.153-6.474 12.032-24.942 43.528-52.67 79.881-84.766 111.137l-1.336 1.303c-10.214 9.972-20.002 19.525-33.869 19.525zm70.933-225.203c-.502 0-.785.099-.944.207.011.003-.052.191-.051.569.023 14.441-14.736 36.313-25.84 51.508-7.926 10.848-16.403 21.647-24.601 32.092-16.799 21.402-34.171 43.534-47.819 67.352-1.622 2.831-3.963 6.045-6.44 9.446-6.022 8.27-13.518 18.561-12.533 26.511 1.729 13.981 22.314 24.57 34.431 29.638 19.364 8.097 29.899-2.196 43.242-15.222l1.34-1.308c31.759-30.927 59.207-66.922 83.916-110.041 2.174-3.793 4.216-7.71 6.378-11.857 4.309-8.265 8.764-16.81 14.265-24.126.564-.75 1.561-1.704 3.273-3.325 1.637-1.549 4.896-4.635 5.731-6.067-4.014-6.204-47.628-33.366-54.574-36.666-.593-.281-1.487-.776-2.725-1.462-10.943-6.063-15.309-7.249-17.049-7.249z"/><path d="m467.06 570.317c-1.597 0-3.286-.115-5.089-.369-14.144-1.992-28.819-16.235-44.866-43.544-7.372-12.544-15.684-24.872-23.722-36.794-9.402-13.945-19.125-28.366-27.515-43.364-2.372-4.241-4.417-8.453-6.396-12.526-5.282-10.879-10.271-21.155-20.395-29.494l1.59-1.93-1.638 1.89c-2.547-2.098-5.716-4.709-6.606-8.512-.434-1.84-.881-3.744 20.255-16.969l.054-.033c1.645-1.165 4.527-3.339 8.158-6.076 33.491-25.254 55.766-40.478 63.317-38.342 10.89 3.076 18.341 14.741 24.915 25.032 2.313 3.623 4.5 7.045 6.609 9.707 16.878 21.309 25.596 44.859 34.824 69.794l1.693 4.567c3.185 8.574 8.905 16.918 14.438 24.987 3.384 4.936 6.883 10.04 9.698 15.073 1.136 2.03 2.474 4.225 3.891 6.547 8.551 14.021 20.261 33.223 5.643 48.438-.657.684-1.333 1.395-2.024 2.123-6.914 7.278-15.518 16.337-25.157 18.954-4.654 1.263-8.516 3.194-12.249 5.063-5.907 2.958-11.543 5.778-19.428 5.778zm-124.801-169.951c10.965 9.033 16.186 19.786 21.713 31.17 1.946 4.009 3.96 8.154 6.261 12.269 8.288 14.816 17.952 29.149 27.298 43.011 8.08 11.985 16.436 24.378 23.886 37.056 15.013 25.548 28.893 39.385 41.253 41.126 9.161 1.293 14.917-1.592 21.582-4.928 3.954-1.979 8.042-4.024 13.178-5.418 8.288-2.25 16.357-10.745 22.842-17.571.698-.735 1.38-1.453 2.044-2.144 11.949-12.438 1.827-29.035-6.307-42.371-1.441-2.364-2.803-4.597-3.984-6.709-2.705-4.835-5.985-9.621-9.459-14.688-5.704-8.319-11.602-16.922-15.001-26.073l-1.694-4.573c-9.088-24.551-17.671-47.739-34.056-68.424-2.267-2.862-4.519-6.388-6.903-10.121-6.094-9.54-13.001-20.353-22.061-22.911-.672-.191-5.017-.454-24.885 12.853-12.052 8.072-25.298 18.06-34.063 24.669-3.739 2.819-6.692 5.046-8.348 6.212.006-.004.008-.006.008-.006-.001 0-.085.059-.23.149-9.753 6.103-15.996 10.634-17.756 12.415.824 1.829 2.834 3.485 4.634 4.969l-1.541 1.969z"/><path d="m243.334 377.993c-.422 0-.85-.106-1.241-.331-1.198-.687-1.612-2.214-.926-3.412 4.775-8.332 14.778-18.567 24.453-28.467 9.271-9.486 18.858-19.295 23.14-26.767.687-1.198 2.213-1.611 3.412-.926 1.198.687 1.612 2.214.926 3.412-4.598 8.024-13.975 17.618-23.901 27.775-9.456 9.675-19.233 19.679-23.691 27.458-.463.807-1.306 1.258-2.172 1.258z"/><path d="m185.752 341.956c-.422 0-.849-.106-1.241-.331-1.198-.687-1.612-2.214-.926-3.412 3.544-6.186 28.166-39.738 40.134-42.985 1.328-.362 2.705.426 3.067 1.759.361 1.332-.426 2.706-1.759 3.067-9.397 2.549-32.768 33.077-37.104 40.646-.462.805-1.305 1.256-2.171 1.256z"/><path d="m296.38 291.647c-.466 0-.931-.12-1.354-.362-5.056-2.898-10.69-6.128-13.648-11.561-.594-1.091-.586-2.301.021-3.321 1.28-2.158 4.989-2.617 7.875-2.623h.001c2.55-.021 10.465-.019 11.612 7.352.05.329-.62 8.438-2.95 10.029-.474.323-1.015.486-1.557.486zm-9.547-12.678c2.041 2.678 5.128 4.73 8.349 6.63.313-1.399.605-3.134.713-3.985-.375-1.751-1.708-2.833-6.561-2.833-.018 0-.034 0-.051 0-.857.001-1.733.078-2.45.188z"/><path d="m374.35 307.89c-.809 0-1.603-.392-2.084-1.116-.765-1.149-.452-2.701.698-3.466 10.049-6.682 17.657-23.993 23.212-36.633.615-1.399 1.202-2.736 1.763-3.989 23.051-51.519 43.539-103.077 41.084-167.243-1.359-35.605-6.213-61.735-12.554-68.409-6.105 5.988-28.123 27.627-31.951 32.01-30.552 34.994-60.148 78.106-93.14 135.679-.687 1.198-2.214 1.611-3.412.926-1.198-.687-1.612-2.214-.926-3.412 33.159-57.865 62.937-101.232 93.712-136.481 4.558-5.219 32.596-32.664 33.787-33.83.8-.781 2.02-.938 2.991-.382 12.618 7.23 15.734 53.956 16.488 73.709 2.496 65.244-18.214 117.396-41.516 169.478-.557 1.243-1.14 2.569-1.75 3.958-5.804 13.206-13.752 31.292-25.021 38.785-.424.282-.905.416-1.381.416z"/></g></svg>