<svg enable-background="new 0 0 256 256" viewBox="0 0 256 256" xmlns="http://www.w3.org/2000/svg"><path d="m57.954 75.311 2.71 12.98h184.91c3.58 0 6.49-2.91 6.49-6.49s-2.91-6.49-6.49-6.49z" fill="#7c7b7a"/><path d="m241.034 88.291-8.551 47.02-28.099 19.18-73.6-11.67c-2.38-.38-4.66 1.06-5.34 3.37l-.26.86-54.11-8.8-10.41-49.96z" fill="#f0c020"/><path d="m201.635 146.46-69.667-11.046c-3.473-.551-7.055.439-9.775 2.688-.556.458-1.283.655-1.993.54l-41.14-6.69c-1.021-.166-1.835-.944-2.046-1.958l-6.499-31.192c-.282-1.352.586-2.676 1.938-2.957 1.354-.281 2.675.586 2.957 1.938l6.148 29.511 38.376 6.24c3.685-2.648 8.339-3.771 12.818-3.056l68.686 10.89 10.206-6.966c1.139-.78 2.695-.487 3.474.655.778 1.14.485 2.695-.655 3.474l-11.026 7.526c-.551.374-1.206.501-1.802.403zm17.613-14.224c-.777-1.141-.484-2.696.656-3.474l2.079-1.419c1.138-.78 2.696-.485 3.474.655.778 1.141.485 2.696-.655 3.474l-2.079 1.419c-1.132.775-2.692.492-3.475-.655z" fill="#f9e5af"/><path d="m243.62 194.93c0 13.7-11.11 24.81-24.82 24.81-13.69 0-24.8-11.11-24.8-24.81 0-8.2 3.96-15.45 10.07-19.97l5.19 10.17 3.11 6.1c1.2 2.36 4.08 3.29 6.43 2.1 2.36-1.22 3.28-4.1 2.1-6.44l-2.86-5.62-5.32-10.41h.01c15.53-3.98 30.89 7.82 30.89 24.07z" fill="#7c7b7a"/><path d="m232.48 194.93c0 7.55-6.11 13.66-13.68 13.66-7.55 0-13.66-6.11-13.66-13.66 0-3.84 1.58-7.31 4.12-9.8l3.11 6.1c1.2 2.36 4.08 3.29 6.43 2.1 2.36-1.22 3.28-4.1 2.1-6.44l-2.86-5.62c8.43-.32 14.44 6.23 14.44 13.66z" fill="#efeff0"/><path d="m218.8 193.33c-2.35 1.19-5.23.26-6.43-2.1l-3.11-6.1-5.19-10.17-6.01-11.78-64.8-10.28-16.42 56.01c-6.42 21.88-36.65 19.97-41.06-1.19l-33.79-162.07h-8.69v-10.5h12.39c2.26 0 4.22 1.59 4.68 3.81l7.58 36.35 2.71 12.98 10.41 49.96 14.08 67.52c2.43 11.57 18.94 12.61 22.45.62l17.58-59.34.26-.86c.68-2.31 2.96-3.76 5.33-3.37l73.61 11.67 8.34 16.37 5.32 10.41 2.86 5.62c1.18 2.34.26 5.22-2.1 6.44z" fill="#72c2e9"/><path d="m3.939 33.539v13.707c0 1.105.895 2 2 2h25.369c1.105 0 2-.895 2-2v-13.707c0-1.105-.895-2-2-2h-25.369c-1.105 0-2 .896-2 2z" fill="#7c7b7a"/><path d="m117.461 173.125c-1.3-.39-2.73.4-3.11 1.68-.395 1.336.365 2.716 1.69 3.11 1.262.387 2.701-.333 3.109-1.69.392-1.32-.368-2.71-1.689-3.1z"/><path d="m236.761 215.515c1.008-.886 1.156-2.443.24-3.529-.88-.99-2.53-1.11-3.53-.24-1.04.91-1.15 2.49-.24 3.53.877 1.023 2.462 1.168 3.53.239z"/><path d="m201.641 75.315c0 1.369 1.12 2.489 2.5 2.489 1.37 0 2.5-1.12 2.5-2.489 0-1.381-1.13-2.511-2.5-2.511-1.38.001-2.5 1.131-2.5 2.511z"/><path d="m245.571 72.805h-31.43c-1.38 0-2.5 1.13-2.5 2.511 0 1.369 1.12 2.489 2.5 2.489h31.43c2.2.011 3.99 1.8 3.99 4 0 2.19-1.79 3.98-3.99 3.99h-182.878l-1.661-7.99h133.109c1.37 0 2.49-1.12 2.49-2.489 0-1.381-1.11-2.5-2.48-2.5l-.01-.011h-134.157l-7.164-34.359c-.699-3.36-3.699-5.801-7.13-5.801h-9.973c-.416-2.054-2.235-3.605-4.41-3.605h-25.368c-2.481 0-4.5 2.019-4.5 4.5v13.707c0 2.481 2.019 4.5 4.5 4.5h25.369c2.174 0 3.992-1.549 4.409-3.602h4.234l33.39 160.091c4.927 23.652 38.714 25.759 45.91 1.38l15.79-53.9 61.37 9.73 4.513 8.849c-6.067 5.267-9.433 12.751-9.433 20.63 0 15.053 12.173 27.32 27.31 27.32 2.88 0 5.72-.45 8.45-1.33 1.31-.43 2.03-1.84 1.6-3.15-.41-1.279-1.85-2.029-3.149-1.609-2.221.72-4.54 1.09-6.9 1.09-12.28-.021-22.28-10.03-22.31-22.32 0-6.141 2.448-11.836 6.787-16.015l2.975 5.833c-2.339 2.875-3.617 6.424-3.617 10.184 0 8.915 7.253 16.168 16.169 16.168 8.921 0 16.178-7.253 16.178-16.168 0-8.203-6.246-15.629-15.402-16.137l-3.093-6.068c13.191-1.418 24.612 9.054 24.634 22.204 0 3.41-.75 6.68-2.221 9.73-.623 1.245-.077 2.746 1.15 3.34 1.147.574 2.703.16 3.34-1.16 1.82-3.73 2.73-7.74 2.73-11.91-.025-17.302-15.69-29.836-32.032-26.908l-6.476-12.705 26.278-17.937c.553-.377.931-.959 1.051-1.617l8.177-44.963h2.451c4.95-.01 8.99-4.04 8.99-8.99 0-4.962-4.04-8.992-8.99-9.002zm-214.763-26.059h-24.369v-12.707h24.369zm189.144 148.799c3.617-1.86 4.959-6.229 3.18-9.79l-.7-1.373c4.731 1.597 7.551 5.973 7.551 10.543 0 6.158-5.015 11.168-11.178 11.168-6.158 0-11.169-5.01-11.169-11.168 0-1.796.43-3.52 1.223-5.073l1.281 2.513c2.509 4.917 8.152 4.135 9.812 3.18zm-1.281-7.53c.555 1.109.125 2.503-1 3.08-1.099.565-2.488.148-3.07-1l-14.31-28.05c-.36-.71-1.05-1.21-1.84-1.34l-64.801-10.28c-1.22-.189-2.439.59-2.79 1.771l-16.409 56.01c-5.716 19.393-32.362 17.609-36.221-.99l-33.79-162.08c-.25-1.149-1.27-1.99-2.449-1.99h-6.181v-5.5h9.891c1.069 0 2.01.771 2.22 1.82 10.545 50.563 24.05 115.32 34.79 166.82 2.931 14.027 23.027 15.352 27.29.81l6.3-21.279c.39-1.32-.36-2.711-1.68-3.11-1.301-.38-2.721.399-3.101 1.68-.01 0-.01.01-.01.01l-6.31 21.29c-2.802 9.573-15.75 8.548-17.601-.42l-13.335-63.961 47.715 7.76-4.79 16.152c-.39 1.337.353 2.712 1.69 3.11 1.3.39 2.729-.4 3.11-1.681.098-.332 5.778-19.513 5.887-19.84.377-1.1 1.462-1.679 2.513-1.516l72.341 11.47c5.871 11.506 10.21 20.013 15.941 31.254zm11.539-54.18-26.409 18.026-72.64-11.516c-3.225-.519-6.306 1.292-7.628 3.904l-50.361-8.189c-4.386-21.035-2.281-10.937-9.434-45.265h174.298z"/></svg>